<mxfile host="app.diagrams.net" modified="2021-03-30T09:08:04.777Z" agent="5.0 (Macintosh; Intel Mac OS X 11_2_3) AppleWebKit/537.36 (KHTML, like Gecko) Chrome/89.0.4389.90 Safari/537.36" etag="eS86200yIa6GxtkT4_xl" version="14.5.3" type="github">
  <diagram name="Page-1" id="bd83a815-5ea8-2e97-e5ec-87c9f400f2fa">
    <mxGraphModel dx="788" dy="491" grid="1" gridSize="10" guides="1" tooltips="1" connect="1" arrows="1" fold="1" page="1" pageScale="1.5" pageWidth="1169" pageHeight="826" background="#ffffff" math="0" shadow="0">
      <root>
        <mxCell id="0" style=";html=1;" />
        <mxCell id="1" style=";html=1;" parent="0" />
        <mxCell id="A8HipYz5tPDnNohidp6Q-77" value="Member" style="shape=table;startSize=30;container=1;collapsible=1;childLayout=tableLayout;fixedRows=1;rowLines=0;fontStyle=1;align=center;resizeLast=1;strokeColor=#000000;strokeWidth=1;fillColor=#DAE8FC;" vertex="1" parent="1">
          <mxGeometry x="600" y="480" width="180" height="430" as="geometry" />
        </mxCell>
        <mxCell id="A8HipYz5tPDnNohidp6Q-78" value="" style="shape=partialRectangle;collapsible=0;dropTarget=0;pointerEvents=0;fillColor=none;top=0;left=0;bottom=1;right=0;points=[[0,0.5],[1,0.5]];portConstraint=eastwest;" vertex="1" parent="A8HipYz5tPDnNohidp6Q-77">
          <mxGeometry y="30" width="180" height="30" as="geometry" />
        </mxCell>
        <mxCell id="A8HipYz5tPDnNohidp6Q-79" value="PK" style="shape=partialRectangle;connectable=0;fillColor=none;top=0;left=0;bottom=0;right=0;fontStyle=1;overflow=hidden;" vertex="1" parent="A8HipYz5tPDnNohidp6Q-78">
          <mxGeometry width="30" height="30" as="geometry" />
        </mxCell>
        <mxCell id="A8HipYz5tPDnNohidp6Q-80" value="Id                            INT" style="shape=partialRectangle;connectable=0;fillColor=none;top=0;left=0;bottom=0;right=0;align=left;spacingLeft=6;fontStyle=1;overflow=hidden;" vertex="1" parent="A8HipYz5tPDnNohidp6Q-78">
          <mxGeometry x="30" width="150" height="30" as="geometry" />
        </mxCell>
        <mxCell id="A8HipYz5tPDnNohidp6Q-81" value="" style="shape=partialRectangle;collapsible=0;dropTarget=0;pointerEvents=0;fillColor=none;top=0;left=0;bottom=0;right=0;points=[[0,0.5],[1,0.5]];portConstraint=eastwest;" vertex="1" parent="A8HipYz5tPDnNohidp6Q-77">
          <mxGeometry y="60" width="180" height="30" as="geometry" />
        </mxCell>
        <mxCell id="A8HipYz5tPDnNohidp6Q-82" value="" style="shape=partialRectangle;connectable=0;fillColor=none;top=0;left=0;bottom=0;right=0;editable=1;overflow=hidden;" vertex="1" parent="A8HipYz5tPDnNohidp6Q-81">
          <mxGeometry width="30" height="30" as="geometry" />
        </mxCell>
        <mxCell id="A8HipYz5tPDnNohidp6Q-83" value="Sex                         INT" style="shape=partialRectangle;connectable=0;fillColor=none;top=0;left=0;bottom=0;right=0;align=left;spacingLeft=6;overflow=hidden;" vertex="1" parent="A8HipYz5tPDnNohidp6Q-81">
          <mxGeometry x="30" width="150" height="30" as="geometry" />
        </mxCell>
        <mxCell id="A8HipYz5tPDnNohidp6Q-84" value="" style="shape=partialRectangle;collapsible=0;dropTarget=0;pointerEvents=0;fillColor=none;top=0;left=0;bottom=0;right=0;points=[[0,0.5],[1,0.5]];portConstraint=eastwest;" vertex="1" parent="A8HipYz5tPDnNohidp6Q-77">
          <mxGeometry y="90" width="180" height="30" as="geometry" />
        </mxCell>
        <mxCell id="A8HipYz5tPDnNohidp6Q-85" value="" style="shape=partialRectangle;connectable=0;fillColor=none;top=0;left=0;bottom=0;right=0;editable=1;overflow=hidden;" vertex="1" parent="A8HipYz5tPDnNohidp6Q-84">
          <mxGeometry width="30" height="30" as="geometry" />
        </mxCell>
        <mxCell id="A8HipYz5tPDnNohidp6Q-86" value="Age                         INT" style="shape=partialRectangle;connectable=0;fillColor=none;top=0;left=0;bottom=0;right=0;align=left;spacingLeft=6;overflow=hidden;" vertex="1" parent="A8HipYz5tPDnNohidp6Q-84">
          <mxGeometry x="30" width="150" height="30" as="geometry" />
        </mxCell>
        <mxCell id="A8HipYz5tPDnNohidp6Q-87" value="" style="shape=partialRectangle;collapsible=0;dropTarget=0;pointerEvents=0;fillColor=none;top=0;left=0;bottom=0;right=0;points=[[0,0.5],[1,0.5]];portConstraint=eastwest;" vertex="1" parent="A8HipYz5tPDnNohidp6Q-77">
          <mxGeometry y="120" width="180" height="30" as="geometry" />
        </mxCell>
        <mxCell id="A8HipYz5tPDnNohidp6Q-88" value="" style="shape=partialRectangle;connectable=0;fillColor=none;top=0;left=0;bottom=0;right=0;editable=1;overflow=hidden;" vertex="1" parent="A8HipYz5tPDnNohidp6Q-87">
          <mxGeometry width="30" height="30" as="geometry" />
        </mxCell>
        <mxCell id="A8HipYz5tPDnNohidp6Q-89" value="Real                        INT" style="shape=partialRectangle;connectable=0;fillColor=none;top=0;left=0;bottom=0;right=0;align=left;spacingLeft=6;overflow=hidden;" vertex="1" parent="A8HipYz5tPDnNohidp6Q-87">
          <mxGeometry x="30" width="150" height="30" as="geometry" />
        </mxCell>
        <mxCell id="A8HipYz5tPDnNohidp6Q-102" value="" style="shape=partialRectangle;collapsible=0;dropTarget=0;pointerEvents=0;fillColor=none;top=0;left=0;bottom=0;right=0;points=[[0,0.5],[1,0.5]];portConstraint=eastwest;" vertex="1" parent="A8HipYz5tPDnNohidp6Q-77">
          <mxGeometry y="150" width="180" height="30" as="geometry" />
        </mxCell>
        <mxCell id="A8HipYz5tPDnNohidp6Q-103" value="" style="shape=partialRectangle;connectable=0;fillColor=none;top=0;left=0;bottom=0;right=0;editable=1;overflow=hidden;" vertex="1" parent="A8HipYz5tPDnNohidp6Q-102">
          <mxGeometry width="30" height="30" as="geometry" />
        </mxCell>
        <mxCell id="A8HipYz5tPDnNohidp6Q-104" value="Roman                   INT" style="shape=partialRectangle;connectable=0;fillColor=none;top=0;left=0;bottom=0;right=0;align=left;spacingLeft=6;overflow=hidden;" vertex="1" parent="A8HipYz5tPDnNohidp6Q-102">
          <mxGeometry x="30" width="150" height="30" as="geometry" />
        </mxCell>
        <mxCell id="A8HipYz5tPDnNohidp6Q-105" value="" style="shape=partialRectangle;collapsible=0;dropTarget=0;pointerEvents=0;fillColor=none;top=0;left=0;bottom=0;right=0;points=[[0,0.5],[1,0.5]];portConstraint=eastwest;" vertex="1" parent="A8HipYz5tPDnNohidp6Q-77">
          <mxGeometry y="180" width="180" height="30" as="geometry" />
        </mxCell>
        <mxCell id="A8HipYz5tPDnNohidp6Q-106" value="" style="shape=partialRectangle;connectable=0;fillColor=none;top=0;left=0;bottom=0;right=0;editable=1;overflow=hidden;" vertex="1" parent="A8HipYz5tPDnNohidp6Q-105">
          <mxGeometry width="30" height="30" as="geometry" />
        </mxCell>
        <mxCell id="A8HipYz5tPDnNohidp6Q-107" value="Human                   INT" style="shape=partialRectangle;connectable=0;fillColor=none;top=0;left=0;bottom=0;right=0;align=left;spacingLeft=6;overflow=hidden;" vertex="1" parent="A8HipYz5tPDnNohidp6Q-105">
          <mxGeometry x="30" width="150" height="30" as="geometry" />
        </mxCell>
        <mxCell id="A8HipYz5tPDnNohidp6Q-108" value="" style="shape=partialRectangle;collapsible=0;dropTarget=0;pointerEvents=0;fillColor=none;top=0;left=0;bottom=0;right=0;points=[[0,0.5],[1,0.5]];portConstraint=eastwest;" vertex="1" parent="A8HipYz5tPDnNohidp6Q-77">
          <mxGeometry y="210" width="180" height="30" as="geometry" />
        </mxCell>
        <mxCell id="A8HipYz5tPDnNohidp6Q-109" value="" style="shape=partialRectangle;connectable=0;fillColor=none;top=0;left=0;bottom=0;right=0;editable=1;overflow=hidden;" vertex="1" parent="A8HipYz5tPDnNohidp6Q-108">
          <mxGeometry width="30" height="30" as="geometry" />
        </mxCell>
        <mxCell id="A8HipYz5tPDnNohidp6Q-110" value="Ideal                       INT" style="shape=partialRectangle;connectable=0;fillColor=none;top=0;left=0;bottom=0;right=0;align=left;spacingLeft=6;overflow=hidden;" vertex="1" parent="A8HipYz5tPDnNohidp6Q-108">
          <mxGeometry x="30" width="150" height="30" as="geometry" />
        </mxCell>
        <mxCell id="A8HipYz5tPDnNohidp6Q-111" value="" style="shape=partialRectangle;collapsible=0;dropTarget=0;pointerEvents=0;fillColor=none;top=0;left=0;bottom=0;right=0;points=[[0,0.5],[1,0.5]];portConstraint=eastwest;" vertex="1" parent="A8HipYz5tPDnNohidp6Q-77">
          <mxGeometry y="240" width="180" height="30" as="geometry" />
        </mxCell>
        <mxCell id="A8HipYz5tPDnNohidp6Q-112" value="" style="shape=partialRectangle;connectable=0;fillColor=none;top=0;left=0;bottom=0;right=0;editable=1;overflow=hidden;" vertex="1" parent="A8HipYz5tPDnNohidp6Q-111">
          <mxGeometry width="30" height="30" as="geometry" />
        </mxCell>
        <mxCell id="A8HipYz5tPDnNohidp6Q-113" value="Agent                     INT" style="shape=partialRectangle;connectable=0;fillColor=none;top=0;left=0;bottom=0;right=0;align=left;spacingLeft=6;overflow=hidden;" vertex="1" parent="A8HipYz5tPDnNohidp6Q-111">
          <mxGeometry x="30" width="150" height="30" as="geometry" />
        </mxCell>
        <mxCell id="A8HipYz5tPDnNohidp6Q-114" value="" style="shape=partialRectangle;collapsible=0;dropTarget=0;pointerEvents=0;fillColor=none;top=0;left=0;bottom=0;right=0;points=[[0,0.5],[1,0.5]];portConstraint=eastwest;" vertex="1" parent="A8HipYz5tPDnNohidp6Q-77">
          <mxGeometry y="270" width="180" height="30" as="geometry" />
        </mxCell>
        <mxCell id="A8HipYz5tPDnNohidp6Q-115" value="" style="shape=partialRectangle;connectable=0;fillColor=none;top=0;left=0;bottom=0;right=0;editable=1;overflow=hidden;" vertex="1" parent="A8HipYz5tPDnNohidp6Q-114">
          <mxGeometry width="30" height="30" as="geometry" />
        </mxCell>
        <mxCell id="A8HipYz5tPDnNohidp6Q-116" value="Relation                 INT" style="shape=partialRectangle;connectable=0;fillColor=none;top=0;left=0;bottom=0;right=0;align=left;spacingLeft=6;overflow=hidden;" vertex="1" parent="A8HipYz5tPDnNohidp6Q-114">
          <mxGeometry x="30" width="150" height="30" as="geometry" />
        </mxCell>
        <mxCell id="A8HipYz5tPDnNohidp6Q-117" value="" style="shape=partialRectangle;collapsible=0;dropTarget=0;pointerEvents=0;fillColor=none;top=0;left=0;bottom=0;right=0;points=[[0,0.5],[1,0.5]];portConstraint=eastwest;" vertex="1" parent="A8HipYz5tPDnNohidp6Q-77">
          <mxGeometry y="300" width="180" height="30" as="geometry" />
        </mxCell>
        <mxCell id="A8HipYz5tPDnNohidp6Q-118" value="" style="shape=partialRectangle;connectable=0;fillColor=none;top=0;left=0;bottom=0;right=0;editable=1;overflow=hidden;" vertex="1" parent="A8HipYz5tPDnNohidp6Q-117">
          <mxGeometry width="30" height="30" as="geometry" />
        </mxCell>
        <mxCell id="A8HipYz5tPDnNohidp6Q-119" value="Trust                      INT" style="shape=partialRectangle;connectable=0;fillColor=none;top=0;left=0;bottom=0;right=0;align=left;spacingLeft=6;overflow=hidden;" vertex="1" parent="A8HipYz5tPDnNohidp6Q-117">
          <mxGeometry x="30" width="150" height="30" as="geometry" />
        </mxCell>
        <mxCell id="A8HipYz5tPDnNohidp6Q-120" value="" style="shape=partialRectangle;collapsible=0;dropTarget=0;pointerEvents=0;fillColor=none;top=0;left=0;bottom=0;right=0;points=[[0,0.5],[1,0.5]];portConstraint=eastwest;" vertex="1" parent="A8HipYz5tPDnNohidp6Q-77">
          <mxGeometry y="330" width="180" height="30" as="geometry" />
        </mxCell>
        <mxCell id="A8HipYz5tPDnNohidp6Q-121" value="" style="shape=partialRectangle;connectable=0;fillColor=none;top=0;left=0;bottom=0;right=0;editable=1;overflow=hidden;" vertex="1" parent="A8HipYz5tPDnNohidp6Q-120">
          <mxGeometry width="30" height="30" as="geometry" />
        </mxCell>
        <mxCell id="A8HipYz5tPDnNohidp6Q-122" value="Manual                  INT" style="shape=partialRectangle;connectable=0;fillColor=none;top=0;left=0;bottom=0;right=0;align=left;spacingLeft=6;overflow=hidden;" vertex="1" parent="A8HipYz5tPDnNohidp6Q-120">
          <mxGeometry x="30" width="150" height="30" as="geometry" />
        </mxCell>
        <mxCell id="A8HipYz5tPDnNohidp6Q-126" value="" style="shape=partialRectangle;collapsible=0;dropTarget=0;pointerEvents=0;fillColor=none;top=0;left=0;bottom=0;right=0;points=[[0,0.5],[1,0.5]];portConstraint=eastwest;" vertex="1" parent="A8HipYz5tPDnNohidp6Q-77">
          <mxGeometry y="360" width="180" height="30" as="geometry" />
        </mxCell>
        <mxCell id="A8HipYz5tPDnNohidp6Q-127" value="" style="shape=partialRectangle;connectable=0;fillColor=none;top=0;left=0;bottom=0;right=0;editable=1;overflow=hidden;" vertex="1" parent="A8HipYz5tPDnNohidp6Q-126">
          <mxGeometry width="30" height="30" as="geometry" />
        </mxCell>
        <mxCell id="A8HipYz5tPDnNohidp6Q-128" value="Confidence.           INT" style="shape=partialRectangle;connectable=0;fillColor=none;top=0;left=0;bottom=0;right=0;align=left;spacingLeft=6;overflow=hidden;" vertex="1" parent="A8HipYz5tPDnNohidp6Q-126">
          <mxGeometry x="30" width="150" height="30" as="geometry" />
        </mxCell>
        <mxCell id="A8HipYz5tPDnNohidp6Q-129" value="" style="shape=partialRectangle;collapsible=0;dropTarget=0;pointerEvents=0;fillColor=none;top=0;left=0;bottom=0;right=0;points=[[0,0.5],[1,0.5]];portConstraint=eastwest;" vertex="1" parent="A8HipYz5tPDnNohidp6Q-77">
          <mxGeometry y="390" width="180" height="30" as="geometry" />
        </mxCell>
        <mxCell id="A8HipYz5tPDnNohidp6Q-130" value="" style="shape=partialRectangle;connectable=0;fillColor=none;top=0;left=0;bottom=0;right=0;editable=1;overflow=hidden;" vertex="1" parent="A8HipYz5tPDnNohidp6Q-129">
          <mxGeometry width="30" height="30" as="geometry" />
        </mxCell>
        <mxCell id="A8HipYz5tPDnNohidp6Q-131" value="Culture                  INT" style="shape=partialRectangle;connectable=0;fillColor=none;top=0;left=0;bottom=0;right=0;align=left;spacingLeft=6;overflow=hidden;" vertex="1" parent="A8HipYz5tPDnNohidp6Q-129">
          <mxGeometry x="30" width="150" height="30" as="geometry" />
        </mxCell>
        <mxCell id="A8HipYz5tPDnNohidp6Q-132" value="Trainer" style="shape=table;startSize=30;container=1;collapsible=1;childLayout=tableLayout;fixedRows=1;rowLines=0;fontStyle=1;align=center;resizeLast=1;strokeColor=#000000;strokeWidth=1;fillColor=#DAE8FC;" vertex="1" parent="1">
          <mxGeometry x="1140" y="480" width="180" height="430" as="geometry" />
        </mxCell>
        <mxCell id="A8HipYz5tPDnNohidp6Q-133" value="" style="shape=partialRectangle;collapsible=0;dropTarget=0;pointerEvents=0;fillColor=none;top=0;left=0;bottom=1;right=0;points=[[0,0.5],[1,0.5]];portConstraint=eastwest;" vertex="1" parent="A8HipYz5tPDnNohidp6Q-132">
          <mxGeometry y="30" width="180" height="30" as="geometry" />
        </mxCell>
        <mxCell id="A8HipYz5tPDnNohidp6Q-134" value="PK" style="shape=partialRectangle;connectable=0;fillColor=none;top=0;left=0;bottom=0;right=0;fontStyle=1;overflow=hidden;" vertex="1" parent="A8HipYz5tPDnNohidp6Q-133">
          <mxGeometry width="30" height="30" as="geometry" />
        </mxCell>
        <mxCell id="A8HipYz5tPDnNohidp6Q-135" value="Name                    String" style="shape=partialRectangle;connectable=0;fillColor=none;top=0;left=0;bottom=0;right=0;align=left;spacingLeft=6;fontStyle=1;overflow=hidden;" vertex="1" parent="A8HipYz5tPDnNohidp6Q-133">
          <mxGeometry x="30" width="150" height="30" as="geometry" />
        </mxCell>
        <mxCell id="A8HipYz5tPDnNohidp6Q-136" value="" style="shape=partialRectangle;collapsible=0;dropTarget=0;pointerEvents=0;fillColor=none;top=0;left=0;bottom=0;right=0;points=[[0,0.5],[1,0.5]];portConstraint=eastwest;" vertex="1" parent="A8HipYz5tPDnNohidp6Q-132">
          <mxGeometry y="60" width="180" height="30" as="geometry" />
        </mxCell>
        <mxCell id="A8HipYz5tPDnNohidp6Q-137" value="" style="shape=partialRectangle;connectable=0;fillColor=none;top=0;left=0;bottom=0;right=0;editable=1;overflow=hidden;" vertex="1" parent="A8HipYz5tPDnNohidp6Q-136">
          <mxGeometry width="30" height="30" as="geometry" />
        </mxCell>
        <mxCell id="A8HipYz5tPDnNohidp6Q-138" value="Sex                         INT" style="shape=partialRectangle;connectable=0;fillColor=none;top=0;left=0;bottom=0;right=0;align=left;spacingLeft=6;overflow=hidden;" vertex="1" parent="A8HipYz5tPDnNohidp6Q-136">
          <mxGeometry x="30" width="150" height="30" as="geometry" />
        </mxCell>
        <mxCell id="A8HipYz5tPDnNohidp6Q-139" value="" style="shape=partialRectangle;collapsible=0;dropTarget=0;pointerEvents=0;fillColor=none;top=0;left=0;bottom=0;right=0;points=[[0,0.5],[1,0.5]];portConstraint=eastwest;" vertex="1" parent="A8HipYz5tPDnNohidp6Q-132">
          <mxGeometry y="90" width="180" height="30" as="geometry" />
        </mxCell>
        <mxCell id="A8HipYz5tPDnNohidp6Q-140" value="" style="shape=partialRectangle;connectable=0;fillColor=none;top=0;left=0;bottom=0;right=0;editable=1;overflow=hidden;" vertex="1" parent="A8HipYz5tPDnNohidp6Q-139">
          <mxGeometry width="30" height="30" as="geometry" />
        </mxCell>
        <mxCell id="A8HipYz5tPDnNohidp6Q-141" value="Age                         INT" style="shape=partialRectangle;connectable=0;fillColor=none;top=0;left=0;bottom=0;right=0;align=left;spacingLeft=6;overflow=hidden;" vertex="1" parent="A8HipYz5tPDnNohidp6Q-139">
          <mxGeometry x="30" width="150" height="30" as="geometry" />
        </mxCell>
        <mxCell id="A8HipYz5tPDnNohidp6Q-142" value="" style="shape=partialRectangle;collapsible=0;dropTarget=0;pointerEvents=0;fillColor=none;top=0;left=0;bottom=0;right=0;points=[[0,0.5],[1,0.5]];portConstraint=eastwest;" vertex="1" parent="A8HipYz5tPDnNohidp6Q-132">
          <mxGeometry y="120" width="180" height="30" as="geometry" />
        </mxCell>
        <mxCell id="A8HipYz5tPDnNohidp6Q-143" value="" style="shape=partialRectangle;connectable=0;fillColor=none;top=0;left=0;bottom=0;right=0;editable=1;overflow=hidden;" vertex="1" parent="A8HipYz5tPDnNohidp6Q-142">
          <mxGeometry width="30" height="30" as="geometry" />
        </mxCell>
        <mxCell id="A8HipYz5tPDnNohidp6Q-144" value="Real                       INT" style="shape=partialRectangle;connectable=0;fillColor=none;top=0;left=0;bottom=0;right=0;align=left;spacingLeft=6;overflow=hidden;" vertex="1" parent="A8HipYz5tPDnNohidp6Q-142">
          <mxGeometry x="30" width="150" height="30" as="geometry" />
        </mxCell>
        <mxCell id="A8HipYz5tPDnNohidp6Q-145" value="" style="shape=partialRectangle;collapsible=0;dropTarget=0;pointerEvents=0;fillColor=none;top=0;left=0;bottom=0;right=0;points=[[0,0.5],[1,0.5]];portConstraint=eastwest;" vertex="1" parent="A8HipYz5tPDnNohidp6Q-132">
          <mxGeometry y="150" width="180" height="30" as="geometry" />
        </mxCell>
        <mxCell id="A8HipYz5tPDnNohidp6Q-146" value="" style="shape=partialRectangle;connectable=0;fillColor=none;top=0;left=0;bottom=0;right=0;editable=1;overflow=hidden;" vertex="1" parent="A8HipYz5tPDnNohidp6Q-145">
          <mxGeometry width="30" height="30" as="geometry" />
        </mxCell>
        <mxCell id="A8HipYz5tPDnNohidp6Q-147" value="Roman                   INT" style="shape=partialRectangle;connectable=0;fillColor=none;top=0;left=0;bottom=0;right=0;align=left;spacingLeft=6;overflow=hidden;" vertex="1" parent="A8HipYz5tPDnNohidp6Q-145">
          <mxGeometry x="30" width="150" height="30" as="geometry" />
        </mxCell>
        <mxCell id="A8HipYz5tPDnNohidp6Q-148" value="" style="shape=partialRectangle;collapsible=0;dropTarget=0;pointerEvents=0;fillColor=none;top=0;left=0;bottom=0;right=0;points=[[0,0.5],[1,0.5]];portConstraint=eastwest;" vertex="1" parent="A8HipYz5tPDnNohidp6Q-132">
          <mxGeometry y="180" width="180" height="30" as="geometry" />
        </mxCell>
        <mxCell id="A8HipYz5tPDnNohidp6Q-149" value="" style="shape=partialRectangle;connectable=0;fillColor=none;top=0;left=0;bottom=0;right=0;editable=1;overflow=hidden;" vertex="1" parent="A8HipYz5tPDnNohidp6Q-148">
          <mxGeometry width="30" height="30" as="geometry" />
        </mxCell>
        <mxCell id="A8HipYz5tPDnNohidp6Q-150" value="Human                   INT" style="shape=partialRectangle;connectable=0;fillColor=none;top=0;left=0;bottom=0;right=0;align=left;spacingLeft=6;overflow=hidden;" vertex="1" parent="A8HipYz5tPDnNohidp6Q-148">
          <mxGeometry x="30" width="150" height="30" as="geometry" />
        </mxCell>
        <mxCell id="A8HipYz5tPDnNohidp6Q-151" value="" style="shape=partialRectangle;collapsible=0;dropTarget=0;pointerEvents=0;fillColor=none;top=0;left=0;bottom=0;right=0;points=[[0,0.5],[1,0.5]];portConstraint=eastwest;" vertex="1" parent="A8HipYz5tPDnNohidp6Q-132">
          <mxGeometry y="210" width="180" height="30" as="geometry" />
        </mxCell>
        <mxCell id="A8HipYz5tPDnNohidp6Q-152" value="" style="shape=partialRectangle;connectable=0;fillColor=none;top=0;left=0;bottom=0;right=0;editable=1;overflow=hidden;" vertex="1" parent="A8HipYz5tPDnNohidp6Q-151">
          <mxGeometry width="30" height="30" as="geometry" />
        </mxCell>
        <mxCell id="A8HipYz5tPDnNohidp6Q-153" value="Ideal                       INT" style="shape=partialRectangle;connectable=0;fillColor=none;top=0;left=0;bottom=0;right=0;align=left;spacingLeft=6;overflow=hidden;" vertex="1" parent="A8HipYz5tPDnNohidp6Q-151">
          <mxGeometry x="30" width="150" height="30" as="geometry" />
        </mxCell>
        <mxCell id="A8HipYz5tPDnNohidp6Q-154" value="" style="shape=partialRectangle;collapsible=0;dropTarget=0;pointerEvents=0;fillColor=none;top=0;left=0;bottom=0;right=0;points=[[0,0.5],[1,0.5]];portConstraint=eastwest;" vertex="1" parent="A8HipYz5tPDnNohidp6Q-132">
          <mxGeometry y="240" width="180" height="30" as="geometry" />
        </mxCell>
        <mxCell id="A8HipYz5tPDnNohidp6Q-155" value="" style="shape=partialRectangle;connectable=0;fillColor=none;top=0;left=0;bottom=0;right=0;editable=1;overflow=hidden;" vertex="1" parent="A8HipYz5tPDnNohidp6Q-154">
          <mxGeometry width="30" height="30" as="geometry" />
        </mxCell>
        <mxCell id="A8HipYz5tPDnNohidp6Q-156" value="Agent                     INT" style="shape=partialRectangle;connectable=0;fillColor=none;top=0;left=0;bottom=0;right=0;align=left;spacingLeft=6;overflow=hidden;" vertex="1" parent="A8HipYz5tPDnNohidp6Q-154">
          <mxGeometry x="30" width="150" height="30" as="geometry" />
        </mxCell>
        <mxCell id="A8HipYz5tPDnNohidp6Q-157" value="" style="shape=partialRectangle;collapsible=0;dropTarget=0;pointerEvents=0;fillColor=none;top=0;left=0;bottom=0;right=0;points=[[0,0.5],[1,0.5]];portConstraint=eastwest;" vertex="1" parent="A8HipYz5tPDnNohidp6Q-132">
          <mxGeometry y="270" width="180" height="30" as="geometry" />
        </mxCell>
        <mxCell id="A8HipYz5tPDnNohidp6Q-158" value="" style="shape=partialRectangle;connectable=0;fillColor=none;top=0;left=0;bottom=0;right=0;editable=1;overflow=hidden;" vertex="1" parent="A8HipYz5tPDnNohidp6Q-157">
          <mxGeometry width="30" height="30" as="geometry" />
        </mxCell>
        <mxCell id="A8HipYz5tPDnNohidp6Q-159" value="Relation                 INT" style="shape=partialRectangle;connectable=0;fillColor=none;top=0;left=0;bottom=0;right=0;align=left;spacingLeft=6;overflow=hidden;" vertex="1" parent="A8HipYz5tPDnNohidp6Q-157">
          <mxGeometry x="30" width="150" height="30" as="geometry" />
        </mxCell>
        <mxCell id="A8HipYz5tPDnNohidp6Q-160" value="" style="shape=partialRectangle;collapsible=0;dropTarget=0;pointerEvents=0;fillColor=none;top=0;left=0;bottom=0;right=0;points=[[0,0.5],[1,0.5]];portConstraint=eastwest;" vertex="1" parent="A8HipYz5tPDnNohidp6Q-132">
          <mxGeometry y="300" width="180" height="30" as="geometry" />
        </mxCell>
        <mxCell id="A8HipYz5tPDnNohidp6Q-161" value="" style="shape=partialRectangle;connectable=0;fillColor=none;top=0;left=0;bottom=0;right=0;editable=1;overflow=hidden;" vertex="1" parent="A8HipYz5tPDnNohidp6Q-160">
          <mxGeometry width="30" height="30" as="geometry" />
        </mxCell>
        <mxCell id="A8HipYz5tPDnNohidp6Q-162" value="Trust                      INT" style="shape=partialRectangle;connectable=0;fillColor=none;top=0;left=0;bottom=0;right=0;align=left;spacingLeft=6;overflow=hidden;" vertex="1" parent="A8HipYz5tPDnNohidp6Q-160">
          <mxGeometry x="30" width="150" height="30" as="geometry" />
        </mxCell>
        <mxCell id="A8HipYz5tPDnNohidp6Q-163" value="" style="shape=partialRectangle;collapsible=0;dropTarget=0;pointerEvents=0;fillColor=none;top=0;left=0;bottom=0;right=0;points=[[0,0.5],[1,0.5]];portConstraint=eastwest;" vertex="1" parent="A8HipYz5tPDnNohidp6Q-132">
          <mxGeometry y="330" width="180" height="30" as="geometry" />
        </mxCell>
        <mxCell id="A8HipYz5tPDnNohidp6Q-164" value="" style="shape=partialRectangle;connectable=0;fillColor=none;top=0;left=0;bottom=0;right=0;editable=1;overflow=hidden;" vertex="1" parent="A8HipYz5tPDnNohidp6Q-163">
          <mxGeometry width="30" height="30" as="geometry" />
        </mxCell>
        <mxCell id="A8HipYz5tPDnNohidp6Q-165" value="Manual                  INT" style="shape=partialRectangle;connectable=0;fillColor=none;top=0;left=0;bottom=0;right=0;align=left;spacingLeft=6;overflow=hidden;" vertex="1" parent="A8HipYz5tPDnNohidp6Q-163">
          <mxGeometry x="30" width="150" height="30" as="geometry" />
        </mxCell>
        <mxCell id="A8HipYz5tPDnNohidp6Q-166" value="" style="shape=partialRectangle;collapsible=0;dropTarget=0;pointerEvents=0;fillColor=none;top=0;left=0;bottom=0;right=0;points=[[0,0.5],[1,0.5]];portConstraint=eastwest;" vertex="1" parent="A8HipYz5tPDnNohidp6Q-132">
          <mxGeometry y="360" width="180" height="30" as="geometry" />
        </mxCell>
        <mxCell id="A8HipYz5tPDnNohidp6Q-167" value="" style="shape=partialRectangle;connectable=0;fillColor=none;top=0;left=0;bottom=0;right=0;editable=1;overflow=hidden;" vertex="1" parent="A8HipYz5tPDnNohidp6Q-166">
          <mxGeometry width="30" height="30" as="geometry" />
        </mxCell>
        <mxCell id="A8HipYz5tPDnNohidp6Q-168" value="Confidence.           INT" style="shape=partialRectangle;connectable=0;fillColor=none;top=0;left=0;bottom=0;right=0;align=left;spacingLeft=6;overflow=hidden;" vertex="1" parent="A8HipYz5tPDnNohidp6Q-166">
          <mxGeometry x="30" width="150" height="30" as="geometry" />
        </mxCell>
        <mxCell id="A8HipYz5tPDnNohidp6Q-169" value="" style="shape=partialRectangle;collapsible=0;dropTarget=0;pointerEvents=0;fillColor=none;top=0;left=0;bottom=0;right=0;points=[[0,0.5],[1,0.5]];portConstraint=eastwest;" vertex="1" parent="A8HipYz5tPDnNohidp6Q-132">
          <mxGeometry y="390" width="180" height="30" as="geometry" />
        </mxCell>
        <mxCell id="A8HipYz5tPDnNohidp6Q-170" value="" style="shape=partialRectangle;connectable=0;fillColor=none;top=0;left=0;bottom=0;right=0;editable=1;overflow=hidden;" vertex="1" parent="A8HipYz5tPDnNohidp6Q-169">
          <mxGeometry width="30" height="30" as="geometry" />
        </mxCell>
        <mxCell id="A8HipYz5tPDnNohidp6Q-171" value="Culture                  INT" style="shape=partialRectangle;connectable=0;fillColor=none;top=0;left=0;bottom=0;right=0;align=left;spacingLeft=6;overflow=hidden;" vertex="1" parent="A8HipYz5tPDnNohidp6Q-169">
          <mxGeometry x="30" width="150" height="30" as="geometry" />
        </mxCell>
        <mxCell id="A8HipYz5tPDnNohidp6Q-172" value="Sale" style="shape=table;startSize=30;container=1;collapsible=1;childLayout=tableLayout;fixedRows=1;rowLines=0;fontStyle=1;align=center;resizeLast=1;strokeColor=#000000;strokeWidth=1;fillColor=#DAE8FC;" vertex="1" parent="1">
          <mxGeometry x="860" y="590" width="180" height="160" as="geometry" />
        </mxCell>
        <mxCell id="A8HipYz5tPDnNohidp6Q-173" value="" style="shape=partialRectangle;collapsible=0;dropTarget=0;pointerEvents=0;fillColor=none;top=0;left=0;bottom=1;right=0;points=[[0,0.5],[1,0.5]];portConstraint=eastwest;" vertex="1" parent="A8HipYz5tPDnNohidp6Q-172">
          <mxGeometry y="30" width="180" height="30" as="geometry" />
        </mxCell>
        <mxCell id="A8HipYz5tPDnNohidp6Q-174" value="PK" style="shape=partialRectangle;connectable=0;fillColor=none;top=0;left=0;bottom=0;right=0;fontStyle=1;overflow=hidden;" vertex="1" parent="A8HipYz5tPDnNohidp6Q-173">
          <mxGeometry width="30" height="30" as="geometry" />
        </mxCell>
        <mxCell id="A8HipYz5tPDnNohidp6Q-175" value="Id                            INT" style="shape=partialRectangle;connectable=0;fillColor=none;top=0;left=0;bottom=0;right=0;align=left;spacingLeft=6;fontStyle=1;overflow=hidden;" vertex="1" parent="A8HipYz5tPDnNohidp6Q-173">
          <mxGeometry x="30" width="150" height="30" as="geometry" />
        </mxCell>
        <mxCell id="A8HipYz5tPDnNohidp6Q-176" value="" style="shape=partialRectangle;collapsible=0;dropTarget=0;pointerEvents=0;fillColor=none;top=0;left=0;bottom=0;right=0;points=[[0,0.5],[1,0.5]];portConstraint=eastwest;" vertex="1" parent="A8HipYz5tPDnNohidp6Q-172">
          <mxGeometry y="60" width="180" height="30" as="geometry" />
        </mxCell>
        <mxCell id="A8HipYz5tPDnNohidp6Q-177" value="" style="shape=partialRectangle;connectable=0;fillColor=none;top=0;left=0;bottom=0;right=0;editable=1;overflow=hidden;" vertex="1" parent="A8HipYz5tPDnNohidp6Q-176">
          <mxGeometry width="30" height="30" as="geometry" />
        </mxCell>
        <mxCell id="A8HipYz5tPDnNohidp6Q-178" value="Is_sale                    INT" style="shape=partialRectangle;connectable=0;fillColor=none;top=0;left=0;bottom=0;right=0;align=left;spacingLeft=6;overflow=hidden;" vertex="1" parent="A8HipYz5tPDnNohidp6Q-176">
          <mxGeometry x="30" width="150" height="30" as="geometry" />
        </mxCell>
        <mxCell id="A8HipYz5tPDnNohidp6Q-179" value="" style="shape=partialRectangle;collapsible=0;dropTarget=0;pointerEvents=0;fillColor=none;top=0;left=0;bottom=0;right=0;points=[[0,0.5],[1,0.5]];portConstraint=eastwest;" vertex="1" parent="A8HipYz5tPDnNohidp6Q-172">
          <mxGeometry y="90" width="180" height="30" as="geometry" />
        </mxCell>
        <mxCell id="A8HipYz5tPDnNohidp6Q-180" value="FK" style="shape=partialRectangle;connectable=0;fillColor=none;top=0;left=0;bottom=0;right=0;editable=1;overflow=hidden;fontStyle=1" vertex="1" parent="A8HipYz5tPDnNohidp6Q-179">
          <mxGeometry width="30" height="30" as="geometry" />
        </mxCell>
        <mxCell id="A8HipYz5tPDnNohidp6Q-181" value="Member_id             INT" style="shape=partialRectangle;connectable=0;fillColor=none;top=0;left=0;bottom=0;right=0;align=left;spacingLeft=6;overflow=hidden;" vertex="1" parent="A8HipYz5tPDnNohidp6Q-179">
          <mxGeometry x="30" width="150" height="30" as="geometry" />
        </mxCell>
        <mxCell id="A8HipYz5tPDnNohidp6Q-182" value="" style="shape=partialRectangle;collapsible=0;dropTarget=0;pointerEvents=0;fillColor=none;top=0;left=0;bottom=0;right=0;points=[[0,0.5],[1,0.5]];portConstraint=eastwest;" vertex="1" parent="A8HipYz5tPDnNohidp6Q-172">
          <mxGeometry y="120" width="180" height="30" as="geometry" />
        </mxCell>
        <mxCell id="A8HipYz5tPDnNohidp6Q-183" value="FK" style="shape=partialRectangle;connectable=0;fillColor=none;top=0;left=0;bottom=0;right=0;editable=1;overflow=hidden;fontStyle=1" vertex="1" parent="A8HipYz5tPDnNohidp6Q-182">
          <mxGeometry width="30" height="30" as="geometry" />
        </mxCell>
        <mxCell id="A8HipYz5tPDnNohidp6Q-184" value="Trainer_name.       String" style="shape=partialRectangle;connectable=0;fillColor=none;top=0;left=0;bottom=0;right=0;align=left;spacingLeft=6;overflow=hidden;" vertex="1" parent="A8HipYz5tPDnNohidp6Q-182">
          <mxGeometry x="30" width="150" height="30" as="geometry" />
        </mxCell>
        <mxCell id="A8HipYz5tPDnNohidp6Q-185" value="" style="edgeStyle=entityRelationEdgeStyle;fontSize=12;html=1;endArrow=ERoneToMany;entryX=0;entryY=0.5;entryDx=0;entryDy=0;" edge="1" parent="1" source="A8HipYz5tPDnNohidp6Q-78" target="A8HipYz5tPDnNohidp6Q-179">
          <mxGeometry width="100" height="100" relative="1" as="geometry">
            <mxPoint x="900" y="720" as="sourcePoint" />
            <mxPoint x="1000" y="620" as="targetPoint" />
          </mxGeometry>
        </mxCell>
        <mxCell id="A8HipYz5tPDnNohidp6Q-186" value="" style="edgeStyle=entityRelationEdgeStyle;fontSize=12;html=1;endArrow=ERoneToMany;exitX=1;exitY=0.5;exitDx=0;exitDy=0;" edge="1" parent="1" source="A8HipYz5tPDnNohidp6Q-182" target="A8HipYz5tPDnNohidp6Q-133">
          <mxGeometry width="100" height="100" relative="1" as="geometry">
            <mxPoint x="900" y="720" as="sourcePoint" />
            <mxPoint x="1000" y="620" as="targetPoint" />
          </mxGeometry>
        </mxCell>
      </root>
    </mxGraphModel>
  </diagram>
</mxfile>
